<svg width="172" height="65" viewBox="0 0 172 65" fill="none" xmlns="http://www.w3.org/2000/svg">
<path d="M0 14.5814C0 4.86136 5.86881 0 14.5012 0C23.1335 0 28.9346 4.92922 28.9346 14.6492H21.7179C21.7179 9.04685 18.8187 6.75053 14.5012 6.75053C10.1836 6.75053 7.28449 9.112 7.28449 14.5814V20.1159H24.956V26.7307H7.28449V49.1266H0V14.5814ZM31.4947 0.0135716H38.7792V49.1402H31.4947V0.0135716ZM83.3946 34.8275V15.9385H90.5707V34.8248C90.5707 40.5439 93.562 43.0058 97.7467 43.0058C101.931 43.0058 104.99 40.4109 104.99 34.8248V15.9385H112.166V34.8248C112.166 40.4109 115.158 43.0058 119.277 43.0058C123.397 43.0058 126.453 40.5439 126.453 34.8248V15.9385H133.629V34.8248C133.629 45.0008 127.714 49.6559 119.942 49.6559C114.892 49.6559 110.838 47.5279 108.513 43.47C106.186 47.5279 102.067 49.6559 97.0849 49.6559C89.3096 49.6559 83.3974 45.0008 83.3974 34.8248L83.3946 34.8275ZM138.535 52.8615L145.798 52.8398C147.214 56.325 150.864 58.5779 155.247 58.5779C161.048 58.5779 164.555 55.7767 164.555 48.7385V44.1594C162.531 48.1223 158.754 50.2422 154.1 50.2422C146.14 50.2422 138.923 45.1176 138.923 33.1582V15.9385H146.208V33.1582C146.208 39.9902 149.85 43.3397 155.38 43.3397C160.91 43.3397 164.552 39.8545 164.552 33.1582V15.9385H171.836V48.5322C171.836 60.2852 164.484 65 155.244 65C147.488 65 140.42 60.7168 138.533 52.8615H138.535ZM45.3857 31.6056C45.383 31.6735 45.383 31.7413 45.3802 31.8092L45.3857 31.6056ZM45.3884 31.5595C45.326 32.5014 45.6053 33.6685 46.004 34.5181L45.9959 34.5235C46.0067 34.5371 46.0149 34.5534 46.0203 34.5697H46.0257C46.0555 34.624 46.0827 34.681 46.1152 34.7352L46.1098 34.7407C46.1098 34.7407 46.1233 34.7624 46.1288 34.7733H46.1342C46.5301 35.4817 47.0698 36.0978 47.7099 36.5864C47.7099 36.5864 47.7289 36.6 47.737 36.6081C47.7939 36.6488 47.8509 36.6923 47.9106 36.733C47.9268 36.7411 47.9377 36.752 47.9485 36.7629C58.5552 43.0872 60.8035 19.4156 69.3708 18.0231C59.3526 12.5158 45.8386 20.1132 45.383 31.5595H45.3884ZM69.9756 26.253C70.3091 32.3711 74.0192 42.6149 69.143 47.6039C77.5557 43.6952 81.0162 32.4036 76.14 24.4289C74.6185 21.3292 69.6122 22.7569 69.9701 26.2068M70.5966 19.3694C67.6053 19.2337 65.7475 22.2819 64.3725 24.5185C65.8153 24.1602 67.4236 24.5239 68.5626 25.4604C68.8121 22.9198 71.1824 20.9709 73.7643 21.283C72.891 20.3955 71.9391 19.3613 70.5966 19.3694ZM56.4426 37.1944C55.0513 38.5407 53.1285 39.2872 51.2057 39.241C51.1867 39.2465 51.1704 39.2437 51.1541 39.241C49.1581 39.1596 47.162 38.3073 45.8386 36.7927C47.5309 48.1793 68.983 56.2137 70.2929 40.6742C66.8622 47.0013 56.4778 44.4363 56.4426 37.1944Z" fill="white"/>
</svg>
