<svg width="116" height="113" viewBox="0 0 116 113" fill="none" xmlns="http://www.w3.org/2000/svg">
<g filter="url(#filter0_d_86_187)">
<path d="M101.983 1.81403H14.3112C9.26648 1.81403 5.17691 5.90189 5.17691 10.9445V95.4995C5.17691 100.542 9.26648 104.63 14.3112 104.63H101.983C107.028 104.63 111.118 100.542 111.118 95.4995V10.9445C111.118 5.90189 107.028 1.81403 101.983 1.81403Z" fill="#354491"/>
</g>
<g style="mix-blend-mode:lighten">
<path d="M101.983 1.81403H14.3112C9.26648 1.81403 5.17691 5.90189 5.17691 10.9445V95.4995C5.17691 100.542 9.26648 104.63 14.3112 104.63H101.983C107.028 104.63 111.118 100.542 111.118 95.4995V10.9445C111.118 5.90189 107.028 1.81403 101.983 1.81403Z" stroke="#AA8BF8" stroke-width="0.41" stroke-miterlimit="10"/>
</g>
<path d="M75.9904 34.1778C76.806 24.3242 69.476 15.6753 59.6182 14.86C49.7604 14.0447 41.1079 21.3717 40.2923 31.2253C39.4766 41.0789 46.8067 49.7278 56.6645 50.5431C66.5222 51.3585 75.1747 44.0314 75.9904 34.1778Z" fill="url(#paint0_linear_86_187)"/>
<path d="M58.1558 11.2944C46.3239 11.2944 36.7287 20.8856 36.7287 32.7126C36.7287 44.5395 46.3239 54.1308 58.1558 54.1308C69.9877 54.1308 79.583 44.5395 79.583 32.7126C79.583 20.8856 69.9877 11.2944 58.1558 11.2944ZM58.1558 50.6151C48.2618 50.6151 40.2458 42.6025 40.2458 32.7126C40.2458 22.8227 48.2618 14.81 58.1558 14.81C68.0499 14.81 76.0659 22.8227 76.0659 32.7126C76.0659 42.6025 68.0499 50.6151 58.1558 50.6151ZM48.5947 51.1357H66.7609C68.8438 51.1357 70.4573 49.2242 70.0048 47.1933C68.878 42.1673 65.6511 38.1653 61.5108 36.6208C63.8925 35.3664 65.5828 32.9856 65.873 30.1953C66.3596 25.4765 62.4327 21.116 57.6863 21.116C53.1448 21.116 49.4569 24.8023 49.4569 29.342C49.4569 32.4992 51.2411 35.2469 53.8619 36.6208C49.7216 38.1738 46.4947 42.1758 45.3678 47.1933C44.9154 49.2242 46.5288 51.1357 48.6118 51.1357H48.5947Z" fill="#213960"/>
<path d="M56.3717 50.5213C46.8874 49.5826 39.5799 41.2542 40.297 31.3814C40.9288 22.5922 48.0569 15.4756 56.8497 14.8527C66.7523 14.153 75.0927 21.5 75.9891 31.0059C76.0744 31.9019 76.8427 32.5675 77.7391 32.5675C78.7891 32.5675 79.5916 31.663 79.4891 30.6134C78.3879 19.2558 68.4255 10.5008 56.6022 11.337C46.0764 12.0794 37.5397 20.5955 36.7884 31.1254C35.9433 42.9182 44.6593 52.8679 55.979 54.0113C57.0205 54.1137 57.9339 53.3116 57.9339 52.262C57.9339 51.366 57.268 50.6066 56.3717 50.5127V50.5213Z" fill="url(#paint1_linear_86_187)"/>
<defs>
<filter id="filter0_d_86_187" x="0.29691" y="0.184026" width="115.701" height="112.576" filterUnits="userSpaceOnUse" color-interpolation-filters="sRGB">
<feFlood flood-opacity="0" result="BackgroundImageFix"/>
<feColorMatrix in="SourceAlpha" type="matrix" values="0 0 0 0 0 0 0 0 0 0 0 0 0 0 0 0 0 0 127 0" result="hardAlpha"/>
<feOffset dy="3.25"/>
<feGaussianBlur stdDeviation="2.44"/>
<feColorMatrix type="matrix" values="0 0 0 0 0 0 0 0 0 0 0 0 0 0 0 0 0 0 0.3 0"/>
<feBlend mode="normal" in2="BackgroundImageFix" result="effect1_dropShadow_86_187"/>
<feBlend mode="normal" in="SourceGraphic" in2="effect1_dropShadow_86_187" result="shape"/>
</filter>
<linearGradient id="paint0_linear_86_187" x1="50.6251" y1="11.0853" x2="71.3709" y2="70.9251" gradientUnits="userSpaceOnUse">
<stop stop-color="#1B304F"/>
<stop offset="1" stop-color="#161B2F"/>
</linearGradient>
<linearGradient id="paint1_linear_86_187" x1="36.7201" y1="32.6614" x2="79.4891" y2="32.6614" gradientUnits="userSpaceOnUse">
<stop stop-color="#55C1F9"/>
<stop offset="0.31" stop-color="#6C88F7"/>
<stop offset="0.63" stop-color="#8353F6"/>
<stop offset="0.87" stop-color="#9033F6"/>
<stop offset="1" stop-color="#9627F6"/>
</linearGradient>
</defs>
</svg>
