<svg width="222" height="53" viewBox="0 0 222 53" fill="none" xmlns="http://www.w3.org/2000/svg">
<g filter="url(#filter0_d_86_162)">
<path d="M207.48 1.96738H14.4734C9.42869 1.96738 5.33911 6.05522 5.33911 11.0978V35.2808C5.33911 40.3234 9.42869 44.4113 14.4734 44.4113H207.48C212.525 44.4113 216.615 40.3234 216.615 35.2808V11.0978C216.615 6.05522 212.525 1.96738 207.48 1.96738Z" fill="#354491"/>
</g>
<g style="mix-blend-mode:lighten">
<path d="M207.48 1.96738H14.4734C9.42869 1.96738 5.33911 6.05522 5.33911 11.0978V35.2808C5.33911 40.3234 9.42869 44.4113 14.4734 44.4113H207.48C212.525 44.4113 216.615 40.3234 216.615 35.2808V11.0978C216.615 6.05522 212.525 1.96738 207.48 1.96738Z" stroke="#AA8BF8" stroke-width="0.41" stroke-miterlimit="10"/>
</g>
<path d="M196.476 35.5368C192.968 35.972 189.459 35.9635 185.951 35.5283C182.143 35.0504 179.155 32.0638 178.677 28.258C178.233 24.7168 178.233 21.184 178.677 17.6428C179.155 13.837 182.143 10.8504 185.951 10.3725C189.493 9.92882 193.028 9.92882 196.57 10.3725C200.378 10.8504 203.365 13.837 203.844 17.6428C204.287 21.1499 204.287 24.657 203.852 28.1642C203.374 32.0211 200.344 35.0589 196.476 35.5368Z" fill="url(#paint0_linear_86_162)"/>
<path d="M191.252 19.6993C191.363 19.6993 191.474 19.7419 191.551 19.8273L193.728 22.1056C194.257 22.6603 193.864 23.5819 193.096 23.5819C192.84 23.5819 192.635 23.7866 192.635 24.0426V26.321C192.635 26.9525 192.123 27.473 191.482 27.473H191.013C190.381 27.473 189.86 26.961 189.86 26.321V24.0426C189.86 23.7866 189.656 23.5819 189.399 23.5819C188.631 23.5819 188.238 22.6603 188.768 22.1056L190.945 19.8273C191.021 19.7419 191.132 19.6993 191.243 19.6993H191.252Z" fill="white"/>
<defs>
<filter id="filter0_d_86_162" x="0.459111" y="0.337377" width="221.035" height="52.2039" filterUnits="userSpaceOnUse" color-interpolation-filters="sRGB">
<feFlood flood-opacity="0" result="BackgroundImageFix"/>
<feColorMatrix in="SourceAlpha" type="matrix" values="0 0 0 0 0 0 0 0 0 0 0 0 0 0 0 0 0 0 127 0" result="hardAlpha"/>
<feOffset dy="3.25"/>
<feGaussianBlur stdDeviation="2.44"/>
<feColorMatrix type="matrix" values="0 0 0 0 0 0 0 0 0 0 0 0 0 0 0 0 0 0 0.3 0"/>
<feBlend mode="normal" in2="BackgroundImageFix" result="effect1_dropShadow_86_162"/>
<feBlend mode="normal" in="SourceGraphic" in2="effect1_dropShadow_86_162" result="shape"/>
</filter>
<linearGradient id="paint0_linear_86_162" x1="191.252" y1="37.8066" x2="191.252" y2="15.2876" gradientUnits="userSpaceOnUse">
<stop stop-color="#5AA7DD"/>
<stop offset="0.28" stop-color="#68B8E7"/>
<stop offset="0.72" stop-color="#7BCFF5"/>
<stop offset="1" stop-color="#82D8FB"/>
</linearGradient>
</defs>
</svg>
