<svg width="262" height="517" viewBox="0 0 262 517" fill="none" xmlns="http://www.w3.org/2000/svg">
<g opacity="0.22" filter="url(#filter0_d_86_119)">
<path d="M214.883 2.73428H33.2901C15.8645 2.73428 1.73834 16.8546 1.73834 34.2728V470.999C1.73834 488.418 15.8645 502.538 33.2901 502.538H214.883C232.309 502.538 246.435 488.418 246.435 470.999V34.2728C246.435 16.8546 232.309 2.73428 214.883 2.73428Z" fill="white"/>
</g>
<path d="M215.464 2.73428H33.0425C15.9605 2.73428 2.06274 16.6262 2.06274 33.7011V471.631C2.06274 488.083 14.9703 501.574 31.19 502.538H133.989V502.598H215.464C232.546 502.598 246.444 488.706 246.444 471.631V33.7011C246.444 16.6262 232.546 2.73428 215.464 2.73428Z" fill="black"/>
<path d="M215.464 9.612H185.79L180.395 19.1606C177.561 24.1781 172.234 27.2842 166.472 27.2842H82.0433C76.2725 27.2842 70.9541 24.1781 68.1199 19.1606L62.7247 9.612H33.0511C19.7423 9.612 8.96043 20.3979 8.96043 33.6925V471.622C8.96043 484.926 19.7508 495.703 33.0511 495.703H215.472C228.781 495.703 239.563 484.917 239.563 471.622V33.7011C239.563 20.3979 228.773 9.62053 215.472 9.62053L215.464 9.612Z" fill="url(#paint0_linear_86_119)"/>
<path d="M37.1658 48.1136C36.884 48.1136 36.6023 48.0197 36.3633 47.8234L32.445 44.5126C32.1632 44.2736 32.0096 43.9323 32.0096 43.5654C32.0096 43.1985 32.1718 42.8571 32.445 42.6182L36.3633 39.2988C36.884 38.8551 37.6694 38.9234 38.1048 39.4439C38.5487 39.9644 38.4804 40.7495 37.9597 41.1846L35.1596 43.5569L37.9597 45.9291C38.4804 46.3728 38.5487 47.1493 38.1048 47.6698C37.8572 47.96 37.5072 48.105 37.1572 48.105L37.1658 48.1136Z" fill="#3C516B"/>
<path d="M214.824 48.1136C215.105 48.1136 215.387 48.0197 215.626 47.8234L219.544 44.5126C219.826 44.2736 219.98 43.9323 219.98 43.5654C219.98 43.1985 219.818 42.8571 219.544 42.6182L215.626 39.2988C215.105 38.8551 214.32 38.9234 213.884 39.4439C213.441 39.9644 213.509 40.7495 214.03 41.1846L216.83 43.5569L214.03 45.9291C213.509 46.3728 213.441 47.1493 213.884 47.6698C214.132 47.96 214.482 48.105 214.832 48.105L214.824 48.1136Z" fill="white"/>
<mask id="mask0_86_119" style="mask-type:luminance" maskUnits="userSpaceOnUse" x="8" y="9" width="232" height="487">
<path d="M215.464 9.612H185.79L180.395 19.1606C177.561 24.1781 172.234 27.2842 166.472 27.2842H82.0433C76.2725 27.2842 70.9541 24.1781 68.1199 19.1606L62.7247 9.612H33.0511C19.7423 9.612 8.96043 20.3979 8.96043 33.6925V471.622C8.96043 484.926 19.7508 495.703 33.0511 495.703H215.472C228.781 495.703 239.563 484.917 239.563 471.622V33.7011C239.563 20.3979 228.773 9.62053 215.472 9.62053L215.464 9.612Z" fill="white"/>
</mask>
<g mask="url(#mask0_86_119)">
<g opacity="0.71">
<path d="M-22.0535 366.238C-14.729 369.353 -6.13251 365.513 -0.481201 359.906C5.16158 354.3 8.92628 347.081 14.2105 341.133C19.4947 335.186 27.2888 330.365 35.0657 332.046C44.2427 334.034 51.1831 344.53 60.4369 342.908C70.4931 341.142 72.431 327.48 79.6104 320.219C87.7288 312.001 101.217 313.29 112.408 316.14C123.6 318.998 135.825 322.77 146.274 317.846C154.776 313.836 159.77 305.098 165.55 297.683C171.329 290.267 180.045 283.304 189.222 285.361C202.206 288.271 208.575 307.59 221.815 306.301C231.052 305.405 235.636 295.003 242.354 288.603C252.274 279.157 269.578 278.961 279.711 288.185V447.252H-22.0535V366.238Z" fill="url(#paint1_linear_86_119)"/>
</g>
<path d="M-22.5145 367.902C-16.4534 370.359 -9.64964 368.602 -4.33126 365.188C1.47371 361.459 5.4689 355.785 9.39579 350.247C13.3227 344.709 17.8215 338.573 24.3521 335.331C27.34 333.846 30.7974 333.044 34.1267 333.624C36.8414 334.102 39.2999 335.408 41.6134 336.85C46.3086 339.777 50.8416 343.83 56.51 344.649C61.6235 345.391 66.2504 343.096 69.4346 339.171C72.6188 335.246 74.7359 330.177 77.5189 325.757C80.6092 320.85 84.869 317.582 90.5886 316.336C103.872 313.443 116.873 320.202 129.875 321.678C136.806 322.463 143.969 321.644 149.936 317.787C155.331 314.297 159.241 309.1 162.997 303.989C166.95 298.596 170.962 293.126 176.784 289.593C181.94 286.462 187.848 285.719 193.191 288.791C201.54 293.595 206.099 303.434 215.242 307.069C219.937 308.938 225.213 308.11 229.319 305.234C233.946 301.992 237.062 297.171 240.681 292.93C244.301 288.689 248.962 285.318 254.664 283.919C260.179 282.562 266.121 282.937 271.405 285.028C274 286.052 276.408 287.554 278.49 289.414C280.147 290.899 282.605 288.458 280.941 286.965C272.139 279.089 258.899 277.596 248.279 282.519C242.952 284.994 239.204 289.184 235.611 293.689C232.384 297.725 228.858 302.7 223.633 304.193C213.893 306.975 206.884 295.899 200.815 290.276C197.144 286.88 192.91 283.978 187.822 283.381C181.121 282.596 174.855 286.052 169.989 290.361C160.453 298.809 155.562 313.571 142.424 317.454C135.287 319.562 127.681 318.145 120.621 316.438C114.065 314.86 107.628 312.914 100.875 312.377C94.9252 311.899 88.6678 312.445 83.3238 315.295C78.3725 317.94 75.2566 322.471 72.6102 327.267C70.2968 331.457 68.1967 336.56 64.193 339.452C59.5661 342.797 54.3673 340.963 49.9794 338.215C45.233 335.254 40.7085 331.303 35.0487 330.262C28.2022 329.008 21.6289 332.088 16.5069 336.432C6.19452 345.178 1.66152 361.485 -12.6375 365.103C-15.668 365.871 -18.6986 365.726 -21.5925 364.548C-23.6584 363.712 -24.5548 367.057 -22.5145 367.885V367.902Z" fill="url(#paint2_linear_86_119)"/>
</g>
<g style="mix-blend-mode:lighten">
</g>
<path d="M151.114 119.442L123.72 115.457C122.866 115.329 122.004 115.619 121.398 116.225L75.5383 162.065C74.7444 162.859 74.7444 164.156 75.5383 164.949L107.824 197.222C108.618 198.015 109.916 198.015 110.71 197.222L156.569 151.382C157.175 150.776 157.465 149.914 157.337 149.061L153.351 121.678C153.18 120.517 152.275 119.613 151.114 119.442ZM141.476 132.191C139.606 130.911 139.606 128.206 141.476 126.926C142.517 126.217 143.952 126.217 144.985 126.926C146.854 128.206 146.854 130.911 144.985 132.191C143.943 132.899 142.509 132.899 141.467 132.191H141.476Z" fill="url(#paint4_linear_86_119)"/>
<path d="M163.637 116.942C164.952 115.466 165.2 114.109 165.2 114.109" stroke="white" stroke-width="1.62" stroke-linecap="round" stroke-linejoin="round"/>
<path d="M144.566 128.53C144.566 128.53 146.803 121.575 155.502 120.577C157.03 120.406 158.31 120.091 159.403 119.698" stroke="white" stroke-width="1.62" stroke-linecap="round" stroke-linejoin="round"/>
<path d="M88.2068 114.894L90.2727 118.674C90.324 118.725 90.3752 118.777 90.4264 118.828L94.2082 120.893C94.4813 121.046 94.4813 121.439 94.2082 121.593L90.4264 123.658C90.3752 123.709 90.324 123.76 90.2642 123.82L88.1983 127.6C88.0447 127.873 87.652 127.873 87.4983 127.6L85.4324 123.82C85.3812 123.768 85.33 123.717 85.2788 123.658L81.497 121.593C81.2238 121.439 81.2238 121.046 81.497 120.893L85.2788 118.828L85.4324 118.674L87.4983 114.894C87.652 114.621 88.0447 114.621 88.1983 114.894H88.2068Z" fill="url(#paint5_linear_86_119)"/>
<path d="M175.819 163.456L178.585 168.508C178.636 168.593 178.705 168.67 178.799 168.721L183.852 171.486C184.219 171.691 184.219 172.211 183.852 172.416L178.799 175.181C178.713 175.232 178.636 175.3 178.585 175.394L175.819 180.446C175.614 180.813 175.094 180.813 174.889 180.446L172.123 175.394C172.072 175.309 172.003 175.232 171.909 175.181L166.856 172.416C166.489 172.211 166.489 171.691 166.856 171.486L171.909 168.721C171.995 168.67 172.072 168.602 172.123 168.508L174.889 163.456C175.094 163.089 175.614 163.089 175.819 163.456Z" fill="url(#paint6_linear_86_119)"/>
<path d="M101.413 112.582L102.241 114.092C102.241 114.092 102.284 114.135 102.301 114.152L103.812 114.979C103.923 115.039 103.923 115.201 103.812 115.261L102.301 116.089L102.241 116.148L101.413 117.659C101.353 117.77 101.191 117.77 101.131 117.659L100.303 116.148L100.244 116.089L98.7326 115.261C98.6216 115.201 98.6216 115.039 98.7326 114.979L100.244 114.152C100.244 114.152 100.295 114.117 100.303 114.092L101.131 112.582C101.191 112.471 101.353 112.471 101.413 112.582Z" fill="url(#paint7_linear_86_119)"/>
<path d="M125.905 163.61C125.034 164.437 124.129 165.163 123.19 165.786C122.251 166.409 121.406 166.844 120.655 167.1L118.154 164.651C120.143 163.934 121.944 162.825 123.566 161.323L118.47 156.339C116.387 157.244 114.645 157.662 113.237 157.602C111.828 157.543 110.565 156.962 109.446 155.87C108.328 154.778 107.756 153.472 107.73 151.953C107.705 150.435 108.234 148.907 109.301 147.388L107.167 145.298L109.591 142.823L111.657 144.845C112.963 143.693 114.372 142.823 115.9 142.209L118.333 144.589C116.626 145.195 115.183 146.049 114.005 147.132L118.982 152.005C120.424 151.416 121.662 151.023 122.695 150.827C123.72 150.631 124.667 150.665 125.538 150.912C126.4 151.16 127.245 151.68 128.056 152.474C129.251 153.643 129.866 154.949 129.917 156.399C129.96 157.85 129.397 159.394 128.218 161.024L130.378 163.132L127.954 165.606L125.914 163.61H125.905ZM111.913 149.923C111.487 151.032 111.674 151.979 112.485 152.773C112.912 153.191 113.356 153.447 113.817 153.541C114.278 153.634 114.833 153.583 115.465 153.396L111.905 149.914L111.913 149.923ZM124.957 155.589C124.548 155.188 124.104 154.94 123.643 154.846C123.182 154.752 122.635 154.795 122.021 154.966L125.623 158.49C126.007 157.363 125.786 156.399 124.957 155.589Z" fill="white"/>
<path d="M115.396 112.624C115.396 113.725 114.509 114.612 113.407 114.612C112.306 114.612 111.418 113.725 111.418 112.624C111.418 111.523 112.306 110.636 113.407 110.636C114.509 110.636 115.396 111.523 115.396 112.624Z" stroke="#7747F7" stroke-width="0.81" stroke-miterlimit="10"/>
<path d="M154.503 170.266C154.503 171.366 153.615 172.254 152.514 172.254C151.413 172.254 150.525 171.366 150.525 170.266C150.525 169.165 151.413 168.277 152.514 168.277C153.615 168.277 154.503 169.165 154.503 170.266Z" stroke="#7747F7" stroke-width="0.41" stroke-miterlimit="10"/>
<path d="M169.092 147.405C169.092 147.951 168.648 148.395 168.102 148.395C167.556 148.395 167.112 147.951 167.112 147.405C167.112 146.859 167.556 146.415 168.102 146.415C168.648 146.415 169.092 146.859 169.092 147.405Z" stroke="#7747F7" stroke-width="0.2" stroke-miterlimit="10"/>
<path d="M219.433 370.334C219.433 371.827 218.221 373.03 216.736 373.03C215.25 373.03 214.038 371.819 214.038 370.334C214.038 368.849 215.25 367.637 216.736 367.637C218.221 367.637 219.433 368.849 219.433 370.334Z" fill="#F354D8"/>
<defs>
<filter id="filter0_d_86_119" x="0.108342" y="0.294276" width="260.937" height="516.044" filterUnits="userSpaceOnUse" color-interpolation-filters="sRGB">
<feFlood flood-opacity="0" result="BackgroundImageFix"/>
<feColorMatrix in="SourceAlpha" type="matrix" values="0 0 0 0 0 0 0 0 0 0 0 0 0 0 0 0 0 0 127 0" result="hardAlpha"/>
<feOffset dx="6.49" dy="5.68"/>
<feGaussianBlur stdDeviation="4.06"/>
<feColorMatrix type="matrix" values="0 0 0 0 0 0 0 0 0 0 0 0 0 0 0 0 0 0 0.42 0"/>
<feBlend mode="normal" in2="BackgroundImageFix" result="effect1_dropShadow_86_119"/>
<feBlend mode="normal" in="SourceGraphic" in2="effect1_dropShadow_86_119" result="shape"/>
</filter>
<linearGradient id="paint0_linear_86_119" x1="48.0842" y1="3.90332" x2="200.297" y2="501.464" gradientUnits="userSpaceOnUse">
<stop stop-color="#1B304F"/>
<stop offset="1" stop-color="#161B2F"/>
</linearGradient>
<linearGradient id="paint1_linear_86_119" x1="128.825" y1="451.501" x2="128.825" y2="295.08" gradientUnits="userSpaceOnUse">
<stop stop-color="#141920" stop-opacity="0"/>
<stop offset="0.3" stop-color="#392837" stop-opacity="0.27"/>
<stop offset="0.96" stop-color="#965071" stop-opacity="0.96"/>
<stop offset="1" stop-color="#9C5375"/>
</linearGradient>
<linearGradient id="paint2_linear_86_119" x1="-22.1901" y1="324.366" x2="279.942" y2="324.366" gradientUnits="userSpaceOnUse">
<stop stop-color="#EEB58C"/>
<stop offset="1" stop-color="#E24465"/>
</linearGradient>
<linearGradient id="paint3_linear_86_119" x1="194.216" y1="457.799" x2="194.216" y2="439.563" gradientUnits="userSpaceOnUse">
<stop stop-color="#5AA7DD"/>
<stop offset="0.28" stop-color="#68B8E7"/>
<stop offset="0.72" stop-color="#7BCFF5"/>
<stop offset="1" stop-color="#82D8FB"/>
</linearGradient>
<linearGradient id="paint4_linear_86_119" x1="134.689" y1="241.133" x2="113.006" y2="137.136" gradientUnits="userSpaceOnUse">
<stop stop-color="#364082"/>
<stop offset="1" stop-color="#A15BF3"/>
</linearGradient>
<linearGradient id="paint5_linear_86_119" x1="80.0457" y1="129.921" x2="97.0772" y2="110.987" gradientUnits="userSpaceOnUse">
<stop stop-color="#E86A2E"/>
<stop offset="1" stop-color="#F2BD38"/>
</linearGradient>
<linearGradient id="paint6_linear_86_119" x1="164.926" y1="183.509" x2="187.666" y2="158.241" gradientUnits="userSpaceOnUse">
<stop stop-color="#E86A2E"/>
<stop offset="1" stop-color="#F2BD38"/>
</linearGradient>
<linearGradient id="paint7_linear_86_119" x1="98.1607" y1="118.58" x2="104.961" y2="111.026" gradientUnits="userSpaceOnUse">
<stop stop-color="#E86A2E"/>
<stop offset="1" stop-color="#F2BD38"/>
</linearGradient>
</defs>
</svg>
