<svg width="154" height="150" viewBox="0 0 154 150" fill="none" xmlns="http://www.w3.org/2000/svg">
<g filter="url(#filter0_d_86_169)">
<path d="M139.608 2.04382H14.5198C9.47503 2.04382 5.38547 6.13168 5.38547 11.1743V132.046C5.38547 137.089 9.47503 141.177 14.5198 141.177H139.608C144.653 141.177 148.743 137.089 148.743 132.046V11.1743C148.743 6.13168 144.653 2.04382 139.608 2.04382Z" fill="#354491"/>
</g>
<g style="mix-blend-mode:lighten">
<path d="M139.608 2.04382H14.5198C9.47503 2.04382 5.38547 6.13168 5.38547 11.1743V132.046C5.38547 137.089 9.47503 141.177 14.5198 141.177H139.608C144.653 141.177 148.743 137.089 148.743 132.046V11.1743C148.743 6.13168 144.653 2.04382 139.608 2.04382Z" stroke="#AA8BF8" stroke-width="0.41" stroke-miterlimit="10"/>
</g>
<path opacity="0.71" d="M115.304 44.4536H44.9105V80.8645H115.304V44.4536Z" fill="url(#paint0_linear_86_169)"/>
<path d="M78.4427 45.6824C97.8809 45.6824 113.64 61.4346 113.64 80.8645H135.724C135.724 49.2407 110.08 23.6071 78.4427 23.6071C46.8056 23.6071 21.1613 49.2407 21.1613 80.8645H43.2458C43.2458 61.4346 59.0046 45.6824 78.4427 45.6824Z" fill="url(#paint1_linear_86_169)"/>
<path d="M84.4611 79.1665L84.4782 79.1835L93.4588 64.9758L79.2452 73.9527L79.2793 73.9868C79.0147 74.149 78.7501 74.3282 78.5196 74.5586C77.0342 76.0433 77.0342 78.4412 78.5196 79.9259C80.005 81.4107 82.4038 81.4107 83.8892 79.9259C84.1197 79.6955 84.2989 79.4395 84.4611 79.1665Z" fill="url(#paint2_linear_86_169)"/>
<path d="M22.7065 80.9499C22.7065 81.7605 22.0491 82.4176 21.2382 82.4176C20.4272 82.4176 19.7698 81.7605 19.7698 80.9499C19.7698 80.1392 20.4272 79.4822 21.2382 79.4822C22.0491 79.4822 22.7065 80.1392 22.7065 80.9499Z" fill="white"/>
<path d="M31.1834 50.7681C31.1834 51.5788 30.5261 52.2358 29.7151 52.2358C28.9041 52.2358 28.2468 51.5788 28.2468 50.7681C28.2468 49.9575 28.9041 49.3004 29.7151 49.3004C30.5261 49.3004 31.1834 49.9575 31.1834 50.7681Z" fill="white"/>
<path d="M52.7472 30.5958C52.7472 31.4064 52.0899 32.0635 51.2789 32.0635C50.4679 32.0635 49.8106 31.4064 49.8106 30.5958C49.8106 29.7851 50.4679 29.1281 51.2789 29.1281C52.0899 29.1281 52.7472 29.7851 52.7472 30.5958Z" fill="white"/>
<path d="M79.9025 23.6071C79.9025 24.4178 79.2452 25.0748 78.4342 25.0748C77.6232 25.0748 76.9659 24.4178 76.9659 23.6071C76.9659 22.7965 77.6232 22.1394 78.4342 22.1394C79.2452 22.1394 79.9025 22.7965 79.9025 23.6071Z" fill="white"/>
<path d="M134.179 80.9499C134.179 81.7605 134.836 82.4176 135.647 82.4176C136.458 82.4176 137.116 81.7605 137.116 80.9499C137.116 80.1392 136.458 79.4822 135.647 79.4822C134.836 79.4822 134.179 80.1392 134.179 80.9499Z" fill="white"/>
<path d="M125.694 50.7681C125.694 51.5788 126.351 52.2359 127.162 52.2359C127.973 52.2359 128.63 51.5788 128.63 50.7681C128.63 49.9575 127.973 49.3004 127.162 49.3004C126.351 49.3004 125.694 49.9575 125.694 50.7681Z" fill="white"/>
<path d="M104.13 30.5958C104.13 31.4064 104.787 32.0635 105.598 32.0635C106.409 32.0635 107.066 31.4064 107.066 30.5958C107.066 29.7851 106.409 29.1281 105.598 29.1281C104.787 29.1281 104.13 29.7851 104.13 30.5958Z" fill="white"/>
<defs>
<filter id="filter0_d_86_169" x="0.505467" y="0.413823" width="153.117" height="148.893" filterUnits="userSpaceOnUse" color-interpolation-filters="sRGB">
<feFlood flood-opacity="0" result="BackgroundImageFix"/>
<feColorMatrix in="SourceAlpha" type="matrix" values="0 0 0 0 0 0 0 0 0 0 0 0 0 0 0 0 0 0 127 0" result="hardAlpha"/>
<feOffset dy="3.25"/>
<feGaussianBlur stdDeviation="2.44"/>
<feColorMatrix type="matrix" values="0 0 0 0 0 0 0 0 0 0 0 0 0 0 0 0 0 0 0.3 0"/>
<feBlend mode="normal" in2="BackgroundImageFix" result="effect1_dropShadow_86_169"/>
<feBlend mode="normal" in="SourceGraphic" in2="effect1_dropShadow_86_169" result="shape"/>
</filter>
<linearGradient id="paint0_linear_86_169" x1="80.116" y1="87.0767" x2="80.116" y2="46.3565" gradientUnits="userSpaceOnUse">
<stop stop-color="#141920" stop-opacity="0"/>
<stop offset="0.22" stop-color="#201D44" stop-opacity="0.2"/>
<stop offset="0.7" stop-color="#3F289F" stop-opacity="0.68"/>
<stop offset="1" stop-color="#5430DB"/>
</linearGradient>
<linearGradient id="paint1_linear_86_169" x1="141.956" y1="-15.5942" x2="41.9347" y2="121.736" gradientUnits="userSpaceOnUse">
<stop stop-color="#55C1F9"/>
<stop offset="0.59" stop-color="#7C63F7"/>
<stop offset="1" stop-color="#9627F6"/>
</linearGradient>
<linearGradient id="paint2_linear_86_169" x1="110.465" y1="68.4264" x2="53.6102" y2="79.8939" gradientUnits="userSpaceOnUse">
<stop stop-color="#55C1F9"/>
<stop offset="0.59" stop-color="#7C63F7"/>
<stop offset="1" stop-color="#9627F6"/>
</linearGradient>
</defs>
</svg>
