<svg width="212" height="67" viewBox="0 0 212 67" fill="none" xmlns="http://www.w3.org/2000/svg">
<g filter="url(#filter0_d_86_195)">
<path d="M197.359 2.03745H14.5198C9.47503 2.03745 5.38547 6.12529 5.38547 11.1679V49.0466C5.38547 54.0892 9.47503 58.177 14.5198 58.177H197.359C202.404 58.177 206.494 54.0892 206.494 49.0466V11.1679C206.494 6.12529 202.404 2.03745 197.359 2.03745Z" fill="#354491"/>
</g>
<g style="mix-blend-mode:lighten">
<path d="M197.359 2.03745H14.5198C9.47503 2.03745 5.38547 6.12529 5.38547 11.1679V49.0466C5.38547 54.0892 9.47503 58.177 14.5198 58.177H197.359C202.404 58.177 206.494 54.0892 206.494 49.0466V11.1679C206.494 6.12529 202.404 2.03745 197.359 2.03745Z" stroke="#AA8BF8" stroke-width="0.41" stroke-miterlimit="10"/>
</g>
<path d="M105.222 18.8904V41.3155" stroke="#E7EAEA" stroke-width="0.61" stroke-miterlimit="10"/>
<defs>
<filter id="filter0_d_86_195" x="0.505467" y="0.407445" width="210.868" height="65.8996" filterUnits="userSpaceOnUse" color-interpolation-filters="sRGB">
<feFlood flood-opacity="0" result="BackgroundImageFix"/>
<feColorMatrix in="SourceAlpha" type="matrix" values="0 0 0 0 0 0 0 0 0 0 0 0 0 0 0 0 0 0 127 0" result="hardAlpha"/>
<feOffset dy="3.25"/>
<feGaussianBlur stdDeviation="2.44"/>
<feColorMatrix type="matrix" values="0 0 0 0 0 0 0 0 0 0 0 0 0 0 0 0 0 0 0.3 0"/>
<feBlend mode="normal" in2="BackgroundImageFix" result="effect1_dropShadow_86_195"/>
<feBlend mode="normal" in="SourceGraphic" in2="effect1_dropShadow_86_195" result="shape"/>
</filter>
</defs>
</svg>
