<svg width="193" height="69" viewBox="0 0 193 69" fill="none" xmlns="http://www.w3.org/2000/svg">
<path d="M182.991 1.10526H9.456C4.41127 1.10526 0.321709 5.19309 0.321709 10.2357V59.6427C0.321709 64.6853 4.41127 68.7731 9.456 68.7731H182.991C188.035 68.7731 192.125 64.6853 192.125 59.6427V10.2357C192.125 5.19309 188.035 1.10526 182.991 1.10526Z" fill="#354491"/>
<g style="mix-blend-mode:lighten">
<path d="M182.991 1.10526H9.456C4.41127 1.10526 0.321709 5.19309 0.321709 10.2357V59.6427C0.321709 64.6853 4.41127 68.7731 9.456 68.7731H182.991C188.035 68.7731 192.125 64.6853 192.125 59.6427V10.2357C192.125 5.19309 188.035 1.10526 182.991 1.10526Z" stroke="#AA8BF8" stroke-width="0.41" stroke-miterlimit="10"/>
</g>
<path d="M170.442 45.9554C167.599 46.3053 164.756 46.3053 161.913 45.947C158.832 45.5544 156.416 43.1395 156.023 40.0591C155.665 37.1919 155.665 34.3333 156.023 31.4662C156.416 28.3857 158.832 25.9708 161.913 25.5783C164.782 25.2199 167.642 25.2199 170.51 25.5783C173.592 25.9708 176.008 28.3857 176.4 31.4662C176.759 34.3077 176.759 37.1492 176.409 39.9908C176.025 43.1139 173.566 45.5714 170.442 45.9554Z" fill="url(#paint0_linear_86_135)"/>
<path d="M166.216 33.1387C166.31 33.1387 166.395 33.1728 166.463 33.2411L168.222 35.0842C168.649 35.5365 168.333 36.2789 167.71 36.2789C167.505 36.2789 167.343 36.441 167.343 36.6458V38.4889C167.343 39.0009 166.924 39.4191 166.412 39.4191H166.028C165.516 39.4191 165.098 39.0009 165.098 38.4889V36.6458C165.098 36.441 164.935 36.2789 164.731 36.2789C164.107 36.2789 163.791 35.5365 164.218 35.0842L165.977 33.2411C166.037 33.1728 166.131 33.1387 166.224 33.1387H166.216Z" fill="white"/>
<defs>
<linearGradient id="paint0_linear_86_135" x1="166.216" y1="47.7986" x2="166.216" y2="29.5633" gradientUnits="userSpaceOnUse">
<stop stop-color="#5AA7DD"/>
<stop offset="0.28" stop-color="#68B8E7"/>
<stop offset="0.72" stop-color="#7BCFF5"/>
<stop offset="1" stop-color="#82D8FB"/>
</linearGradient>
</defs>
</svg>
