<svg width="583" height="68" viewBox="0 0 583 68" fill="none" xmlns="http://www.w3.org/2000/svg">
<path d="M31.4342 30.577C27.2862 33.8049 24.5154 37.6578 23.432 39.697C20.237 45.7112 12.7714 47.9966 6.75725 44.8015C0.743063 41.6065 -1.54231 34.1409 1.65273 28.1267C4.27152 23.1972 9.24247 16.597 16.288 11.1141C23.4436 5.54559 33.357 0.674805 45.5348 0.674805C57.5725 0.674805 67.9025 5.44062 75.5343 10.6791C83.1353 15.8964 88.9308 22.1679 92.1858 26.7884L92.2076 26.8194C93.8567 29.1647 97.5906 33.3298 102.663 36.8117C107.722 40.2841 113.235 42.487 118.706 42.487C124.037 42.487 128.769 40.3891 132.807 37.2468C136.955 34.0188 139.726 30.1659 140.809 28.1267C143.428 23.1972 148.399 16.597 155.444 11.1141C162.6 5.54559 172.513 0.674805 184.691 0.674805C196.729 0.674805 207.059 5.44062 214.691 10.6791C222.29 15.8954 228.085 22.1655 231.34 26.7857L231.364 26.8194C233.013 29.1647 236.747 33.3298 241.82 36.8117C246.878 40.2841 252.391 42.487 257.863 42.487C263.194 42.487 267.925 40.3891 271.963 37.2468C276.111 34.0188 278.882 30.1659 279.965 28.1267C280.917 26.336 282.247 24.8759 283.804 23.7925C286.627 19.6916 290.658 15.1066 295.788 11.1141C302.944 5.54559 312.857 0.674805 325.035 0.674805C337.072 0.674805 347.402 5.44062 355.034 10.6791C362.635 15.8964 368.431 22.1679 371.686 26.7884L371.708 26.8194C373.357 29.1647 377.091 33.3298 382.163 36.8117C387.222 40.2841 392.735 42.487 398.206 42.487C403.537 42.487 408.269 40.3891 412.307 37.2468C416.455 34.0188 419.226 30.1659 420.309 28.1267C422.928 23.1972 427.899 16.597 434.944 11.1141C442.1 5.54559 452.013 0.674805 464.191 0.674805C476.229 0.674805 486.559 5.44062 494.191 10.6791C501.79 15.8954 507.585 22.1655 510.84 26.7857L510.864 26.8194C512.513 29.1647 516.247 33.3298 521.32 36.8117C526.378 40.2841 531.891 42.487 537.363 42.487C542.694 42.487 547.425 40.3891 551.463 37.2468C555.611 34.0188 558.382 30.1659 559.465 28.1267C562.66 22.1125 570.126 19.8272 576.14 23.0222C582.154 26.2173 584.44 33.6828 581.245 39.697C578.626 44.6265 573.655 51.2267 566.609 56.7096C559.454 62.2781 549.54 67.1489 537.363 67.1489C525.325 67.1489 514.995 62.3831 507.363 57.1446C499.764 51.9287 493.97 45.6591 490.714 41.039L490.69 41.0043C489.041 38.659 485.307 34.4939 480.234 31.012C475.175 27.5396 469.662 25.3367 464.191 25.3367C458.86 25.3367 454.128 27.4346 450.09 30.577C445.943 33.8049 443.172 37.6578 442.088 39.697C439.47 44.6265 434.499 51.2267 427.453 56.7096C420.298 62.2781 410.384 67.1489 398.206 67.1489C386.169 67.1489 375.839 62.3831 368.207 57.1446C360.606 51.9271 354.81 45.6554 351.555 41.0349L351.533 41.0043C349.884 38.659 346.15 34.4939 341.078 31.012C336.019 27.5396 330.506 25.3367 325.035 25.3367C319.704 25.3367 314.972 27.4346 310.934 30.577C306.786 33.8049 304.015 37.6578 302.932 39.697C301.981 41.4877 300.651 42.9479 299.093 44.0312C296.27 48.1321 292.24 52.7171 287.109 56.7096C279.954 62.2781 270.04 67.1489 257.863 67.1489C245.825 67.1489 235.495 62.3831 227.863 57.1446C220.264 51.9287 214.47 45.6591 211.214 41.039L211.19 41.0043C209.541 38.659 205.807 34.4939 200.734 31.012C195.675 27.5396 190.162 25.3367 184.691 25.3367C179.36 25.3367 174.628 27.4346 170.59 30.577C166.443 33.8049 163.672 37.6578 162.588 39.697C159.97 44.6265 154.999 51.2267 147.953 56.7096C140.798 62.2781 130.884 67.1489 118.706 67.1489C106.669 67.1489 96.3386 62.3831 88.7068 57.1446C81.1056 51.9271 75.3099 45.6554 72.055 41.0349L72.0334 41.0043C70.3844 38.659 66.6505 34.4939 61.5778 31.012C56.519 27.5396 51.0061 25.3367 45.5348 25.3367C40.2038 25.3367 35.4721 27.4346 31.4342 30.577Z" fill="url(#paint0_linear_246_15828)"/>
<defs>
<linearGradient id="paint0_linear_246_15828" x1="0.208984" y1="33.9119" x2="582.688" y2="33.9119" gradientUnits="userSpaceOnUse">
<stop offset="0.32" stop-color="#DF6037"/>
<stop offset="1" stop-color="#F5DB4B"/>
</linearGradient>
</defs>
</svg>
